<svg width="47" height="44" viewBox="0 0 47 44" fill="none" xmlns="http://www.w3.org/2000/svg">
<path fill-rule="evenodd" clip-rule="evenodd" d="M22.5859 0L42.1731 8.52125L47 17.8021L42.8375 30.6075L31.5584 44L12.5018 41.5573L0 26.9058L4.1914 12.1695L22.5859 0ZM23.0925 1.30854L22.5408 10.9257L10.9945 21.582L13.1167 29.1988L37.3373 25.1556L41.2276 9.19809L23.0925 1.30854ZM41.9821 10.3168L45.9216 17.8914L42.1737 29.4212L38.2944 25.4431L41.9821 10.3168ZM37.569 26.1285L14.0016 30.0627L31.2715 42.7915L41.72 30.3852L37.569 26.1285ZM29.5078 42.7312L12.5408 30.2257L1.9351 27.6363L13.011 40.6166L29.5078 42.7312ZM1.17474 26.4235L4.8006 13.6756L9.97181 21.6298L12.047 29.0781L1.17474 26.4235ZM10.528 20.6545L21.5675 10.4661L22.0801 1.53111L5.30894 12.6266L10.528 20.6545Z" fill="url(#paint0_linear_26_2685)"/>
<path d="M23.6715 35.48C21.3675 35.48 19.3942 34.9787 17.7515 33.976C16.1088 32.9627 14.8448 31.5547 13.9595 29.752C13.0848 27.9493 12.6475 25.8587 12.6475 23.48C12.6475 21.1013 13.0848 19.0107 13.9595 17.208C14.8448 15.4053 16.1088 14.0027 17.7515 13C19.3942 11.9867 21.3675 11.48 23.6715 11.48C26.3275 11.48 28.5408 12.1467 30.3115 13.48C32.0822 14.8027 33.3248 16.5893 34.0395 18.84L30.1515 19.912C29.7035 18.408 28.9408 17.2347 27.8635 16.392C26.7862 15.5387 25.3888 15.112 23.6715 15.112C22.1248 15.112 20.8342 15.4587 19.7995 16.152C18.7755 16.8453 18.0022 17.8213 17.4795 19.08C16.9675 20.328 16.7062 21.7947 16.6955 23.48C16.6955 25.1653 16.9515 26.6373 17.4635 27.896C17.9862 29.144 18.7648 30.1147 19.7995 30.808C20.8342 31.5013 22.1248 31.848 23.6715 31.848C25.3888 31.848 26.7862 31.4213 27.8635 30.568C28.9408 29.7147 29.7035 28.5413 30.1515 27.048L34.0395 28.12C33.3248 30.3707 32.0822 32.1627 30.3115 33.496C28.5408 34.8187 26.3275 35.48 23.6715 35.48Z" fill="white"/>
<defs>
<linearGradient id="paint0_linear_26_2685" x1="0" y1="22.1053" x2="47" y2="22.1053" gradientUnits="userSpaceOnUse">
<stop stop-color="white"/>
<stop offset="0.5" stop-color="#0085FF"/>
<stop offset="1" stop-color="white"/>
</linearGradient>
</defs>
</svg>
